HIERARCHY
ROOT Hips
{
	OFFSET 0.000000 0.000000 0.000000
	CHANNELS 6 Xposition Yposition Zposition Zrotation Yrotation Xrotation 
	JOINT LeftUpLeg_virtual
	{
		OFFSET 0.000000 0.000000 0.000000
		CHANNELS 3 Zrotation Yrotation Xrotation
		JOINT LeftUpLeg
		{
			OFFSET 10.205400 -3.823500 0.155100
			CHANNELS 3 Zrotation Yrotation Xrotation
			JOINT LeftLeg
			{
				OFFSET 0.708757 -12.982077 0.567790
				CHANNELS 3 Zrotation Yrotation Xrotation
				JOINT LeftFoot
				{
					OFFSET -0.708756 -10.717838 -2.184338
					CHANNELS 3 Zrotation Yrotation Xrotation
					JOINT LeftToeBase
					{
						OFFSET 0.108149 -7.191104 7.560241
						CHANNELS 3 Zrotation Yrotation Xrotation
						End Site
						{
							OFFSET 0.000000 0.000000 0.000000
						}
					}
				}
			}
		}
	}
	JOINT RightUpLeg_virtual
	{
		OFFSET 0.000000 0.000000 0.000000
		CHANNELS 3 Zrotation Yrotation Xrotation
		JOINT RightUpLeg
		{
			OFFSET -10.205400 -3.823500 0.005500
			CHANNELS 3 Zrotation Yrotation Xrotation
			JOINT RightLeg
			{
				OFFSET -0.708756 -12.982134 0.610632
				CHANNELS 3 Zrotation Yrotation Xrotation
				JOINT RightFoot
				{
					OFFSET 0.708754 -10.717769 -1.945823
					CHANNELS 3 Zrotation Yrotation Xrotation
					JOINT RightToeBase
					{
						OFFSET -0.108140 -7.191069 7.372968
						CHANNELS 3 Zrotation Yrotation Xrotation
						End Site
						{
							OFFSET 0.000000 0.000000 0.000000
						}
					}
				}
			}
		}
	}
	JOINT Spine_virtual
	{
		OFFSET 0.000000 0.000000 0.000000
		CHANNELS 3 Zrotation Yrotation Xrotation
		JOINT Spine
		{
			OFFSET 0.000000 6.876099 0.125700
			CHANNELS 3 Zrotation Yrotation Xrotation
			JOINT Spine1
			{
				OFFSET 0.000000 8.022060 0.146608
				CHANNELS 3 Zrotation Yrotation Xrotation
				JOINT Spine2
				{
					OFFSET 0.000000 9.168068 0.167552
					CHANNELS 3 Zrotation Yrotation Xrotation
					JOINT Neck_virtual
					{
						OFFSET 0.000000 0.000000 0.000000
						CHANNELS 3 Zrotation Yrotation Xrotation
						JOINT Neck
						{
							OFFSET 0.000000 10.314075 0.188496
							CHANNELS 3 Zrotation Yrotation Xrotation
							JOINT Head
							{
								OFFSET 0.000000 7.643700 -2.377400
								CHANNELS 3 Zrotation Yrotation Xrotation
								End Site
								{
									OFFSET 0.000000 0.000000 0.000000
								}
							}
						}
					}
					JOINT LeftShoulder_virtual
					{
						OFFSET 0.000000 0.000000 0.000000
						CHANNELS 3 Zrotation Yrotation Xrotation
						JOINT LeftShoulder
						{
							OFFSET 4.392200 8.824978 0.174984
							CHANNELS 3 Zrotation Yrotation Xrotation
							JOINT LeftArm
							{
								OFFSET 8.771219 -2.981674 -0.026999
								CHANNELS 3 Zrotation Yrotation Xrotation
								JOINT LeftForeArm
								{
									OFFSET 8.512804 0.000000 -0.000000
									CHANNELS 3 Zrotation Yrotation Xrotation
									JOINT LeftHand
									{
										OFFSET 18.484802 0.000000 -0.000000
										CHANNELS 3 Zrotation Yrotation Xrotation
										End Site
										{
											OFFSET 0.000000 0.000000 0.000000
										}
									}
								}
							}
						}
					}
					JOINT RightShoulder_virtual
					{
						OFFSET 0.000000 0.000000 0.000000
						CHANNELS 3 Zrotation Yrotation Xrotation
						JOINT RightShoulder
						{
							OFFSET -4.392200 8.824993 0.141379
							CHANNELS 3 Zrotation Yrotation Xrotation
							JOINT RightArm
							{
								OFFSET -8.771282 -2.981682 -0.094208
								CHANNELS 3 Zrotation Yrotation Xrotation
								JOINT RightForeArm
								{
									OFFSET -8.494598 0.000000 0.000000
									CHANNELS 3 Zrotation Yrotation Xrotation
									JOINT RightHand
									{
										OFFSET -18.483803 0.000000 0.000001
										CHANNELS 3 Zrotation Yrotation Xrotation
										End Site
										{
											OFFSET 0.000000 0.000000 0.000000
										}
									}
								}
							}
						}
					}
				}
			}
		}
	}
}
MOTION
Frames: 13
Frame Time: 0.033333
7.864559 34.587265 -26.265373 179.973736 -13.626451 -178.981979 -0.261324 -4.795665 8.003806 18.156665 -6.703252 -43.445450 3.346057 -3.799328 28.671024 -3.714627 6.362147 29.709673 0.000000 0.000000 0.000000 6.926532 -1.765420 9.125352 -14.263578 18.204170 -13.850917 0.025462 11.563637 39.971179 12.097441 9.639348 10.649698 0.000000 0.000000 0.000000 3.045879 -0.153179 -6.316407 3.313209 2.597851 -9.233651 0.051566 -2.837724 11.632519 0.008299 -0.074461 0.143610 0.072449 -1.146475 13.690471 -7.284112 8.337077 25.449227 0.000000 0.000000 0.000000 1.731242 -0.673014 10.479465 -0.244342 -7.266026 -1.210002 -64.277947 23.153004 21.119946 -11.048109 -74.909512 18.498478 0.000000 0.000000 0.000000 -2.343232 0.760176 9.578872 16.523556 9.117374 -5.630652 63.809109 -9.470554 20.012123 -166.581948 75.298895 -170.164792 0.000000 0.000000 0.000000 
6.291050 34.385178 -26.757690 -179.769623 -10.816601 -179.497795 -0.005115 -4.536220 8.963989 17.693976 -7.680490 -41.484008 3.025391 -5.779666 31.134075 -2.855315 5.736120 27.514051 0.000000 0.000000 0.000000 7.041001 -1.216414 9.068865 -17.173785 19.296024 -17.142108 0.127302 11.821879 42.151666 13.054208 9.246494 12.801407 0.000000 0.000000 0.000000 3.375796 0.323991 -5.509218 4.391554 2.408519 -8.018511 0.223562 -2.981161 11.465094 -0.024946 -0.066109 0.080268 0.212263 -1.313609 13.327446 -7.075218 8.170204 24.816702 0.000000 0.000000 0.000000 1.750295 -0.943095 10.205473 -0.106613 -6.928744 -1.125411 -64.330922 22.029228 22.168583 -17.742321 -80.432711 26.791794 0.000000 0.000000 0.000000 -2.452314 0.449039 9.322779 16.278955 8.713892 -5.468947 64.791625 -10.872454 17.348786 -166.579517 75.332574 -170.736260 0.000000 0.000000 0.000000 
4.764204 34.152512 -26.933231 179.847610 -7.448237 -179.539705 0.649625 -3.922882 10.209496 16.116501 -8.183085 -40.469202 2.513304 -6.942839 33.507498 -2.556788 4.830907 24.366939 0.000000 0.000000 0.000000 7.071589 -1.066106 8.944517 -21.145782 18.743813 -21.148888 -0.323341 11.842835 44.818428 12.683234 7.768182 14.003553 0.000000 0.000000 0.000000 3.315793 0.683093 -4.358293 5.242443 2.139968 -6.474852 0.281188 -3.004111 11.272268 -0.061331 0.051551 0.058717 0.236709 -1.422620 13.007342 -6.826859 8.199091 23.669367 0.000000 0.000000 0.000000 1.770895 -0.939304 9.906763 0.098099 -6.631767 -0.862250 -64.410385 20.429016 22.646870 -34.421268 -84.802536 44.799938 0.000000 0.000000 0.000000 -2.477068 0.599382 9.037776 16.123205 8.538584 -5.313982 65.617621 -11.462377 14.688516 -166.298823 75.432732 -170.973951 0.000000 0.000000 0.000000 
3.314811 33.909679 -26.727798 179.469395 -5.024937 -178.998604 1.355273 -3.180463 11.300831 13.851297 -8.137421 -40.388855 2.369880 -6.825157 35.483420 -2.359992 4.129552 21.066074 0.000000 0.000000 0.000000 6.231429 -1.200471 8.933606 -24.229587 17.347171 -25.741357 -2.023616 9.266769 47.639084 11.256998 5.667906 14.391123 0.000000 0.000000 0.000000 3.322836 0.781110 -3.057050 5.865793 1.870397 -4.880983 0.076754 -2.993356 11.008441 0.123959 0.075965 0.081242 0.294058 -1.591726 12.636817 -6.730031 7.760836 22.219384 0.000000 0.000000 0.000000 1.805006 -1.152525 9.807825 0.226804 -6.669515 -0.757862 -64.630214 18.633919 22.672885 -65.864177 -86.974440 77.636506 0.000000 0.000000 0.000000 -2.457011 0.239028 8.991998 15.924540 8.360379 -5.174575 66.137227 -11.326989 12.673509 -166.538057 75.131719 -171.615224 0.000000 0.000000 0.000000 
1.995520 33.692390 -26.271471 179.213837 -2.610897 -178.650059 1.824207 -2.654795 11.929126 11.456887 -8.097365 -41.117797 2.581200 -6.206590 36.665729 -2.465640 3.593376 17.636066 0.000000 0.000000 0.000000 5.311785 -1.219327 9.368206 -26.186160 16.050760 -30.848819 -3.145889 8.430538 51.913013 11.273661 4.526730 13.673360 0.000000 0.000000 0.000000 3.314983 0.873223 -1.402765 6.335775 1.393359 -2.913670 -0.181115 -2.934250 10.930005 0.153203 0.119848 0.125158 0.188119 -1.608942 12.605713 -6.526063 7.361641 20.760975 0.000000 0.000000 0.000000 1.742415 -1.273542 9.557108 0.663468 -6.953363 -0.477802 -64.997146 16.513862 22.200854 -82.303219 -87.453011 95.357179 0.000000 0.000000 0.000000 -2.528734 0.284651 8.795539 15.731720 8.632597 -5.147159 66.398052 -10.501611 10.922665 -167.067889 75.574513 -172.526972 0.000000 0.000000 0.000000 
0.819878 33.529263 -25.670479 178.958087 -0.512745 -178.542975 2.190413 -1.988633 12.486469 9.220400 -7.873079 -41.734993 3.237780 -5.313167 37.526777 -2.687734 3.379409 14.801484 0.000000 0.000000 0.000000 4.949302 -0.747700 9.980367 -26.973339 13.564375 -35.908278 -3.336422 8.188488 56.533274 11.070731 4.124248 12.448159 0.000000 0.000000 0.000000 3.198470 1.076146 0.598225 6.541625 0.863790 -0.742803 -0.347675 -2.834692 10.840295 0.153286 0.124140 0.220287 -0.059253 -1.742503 12.532791 -6.483628 7.041464 19.356580 0.000000 0.000000 0.000000 1.334122 -1.348661 9.785965 1.170963 -7.365464 -0.366327 -64.781585 14.522237 21.906082 -97.147686 -87.801440 111.362703 0.000000 0.000000 0.000000 -2.748759 0.244770 9.009955 15.663990 9.036369 -5.090975 66.203098 -9.114800 10.511863 -166.122905 75.763149 -171.755652 0.000000 0.000000 0.000000 
-0.242542 33.442543 -25.065605 179.023602 1.416763 -178.675645 2.151250 -1.384842 12.695612 7.200974 -7.516271 -42.364269 4.371901 -3.841677 38.211213 -2.660824 3.768858 13.305530 0.000000 0.000000 0.000000 4.931735 0.243610 10.529024 -25.503428 10.391124 -40.519080 -2.982679 8.163809 59.096074 10.392508 4.184494 12.960316 0.000000 0.000000 0.000000 3.287534 1.640524 2.615279 6.554208 0.555983 1.637501 -0.647583 -2.877758 10.899749 0.141731 0.106624 0.204089 -0.209750 -1.723308 12.529840 -6.206341 6.603716 18.105879 0.000000 0.000000 0.000000 1.191507 -1.468175 9.687637 1.713823 -7.929591 -0.037725 -65.178897 12.653652 21.575345 -86.341938 -88.217651 101.563349 0.000000 0.000000 0.000000 -2.943826 0.199735 8.810613 15.709066 9.326296 -5.057382 65.535419 -7.688636 10.737337 -165.565111 76.438833 -171.512990 0.000000 0.000000 0.000000 
-1.234066 33.405842 -24.513878 179.110236 3.214222 -178.780721 1.861341 -0.857609 12.792610 5.545133 -7.166786 -42.839831 5.701034 -2.406557 38.851468 -2.809476 4.303191 12.368165 0.000000 0.000000 0.000000 5.027333 0.893615 10.880084 -22.743063 7.766739 -45.112167 -2.483043 7.591331 59.706700 9.793743 4.633878 13.991216 0.000000 0.000000 0.000000 3.284772 2.204158 4.436239 6.378991 0.221988 4.061397 -0.813253 -2.973249 10.999447 0.124226 -0.010357 0.159615 -0.485086 -1.820705 12.694946 -6.196869 6.089472 16.920421 0.000000 0.000000 0.000000 0.809762 -1.374797 9.508612 2.336072 -8.378300 0.183978 -65.178583 11.125234 21.723483 -78.145567 -88.581420 94.171930 0.000000 0.000000 0.000000 -3.124654 0.081169 8.891828 15.225735 9.863681 -5.357752 65.378789 -6.231982 11.328634 -165.009830 77.781791 -171.134515 0.000000 0.000000 0.000000 
-2.181337 33.385265 -24.043987 179.253001 4.722859 -178.848094 1.450544 -0.690199 12.930219 4.221118 -6.838191 -43.480889 7.113720 -1.180889 39.705614 -3.080699 4.837086 11.809490 0.000000 0.000000 0.000000 5.107700 1.199619 10.966501 -18.501968 5.092840 -48.518105 -1.901622 6.797014 58.540547 8.941086 4.841145 14.733616 0.000000 0.000000 0.000000 3.278349 2.294838 5.968420 6.062675 -0.044249 6.560618 -0.994971 -2.861236 11.096080 0.150709 -0.034707 0.080819 -0.701035 -1.783473 12.959021 -5.940170 5.726393 16.186023 0.000000 0.000000 0.000000 0.647871 -1.289782 9.438860 2.743317 -8.829091 0.462557 -65.660480 9.834625 21.568291 -70.025463 -88.868404 86.642924 0.000000 0.000000 0.000000 -3.214567 0.297039 8.849835 14.573254 10.027479 -5.360204 65.177114 -4.603816 12.051995 -162.234615 79.327921 -168.539234 0.000000 0.000000 0.000000 
-3.087909 33.343754 -23.616135 179.346602 6.106288 -178.884253 1.016835 -1.061833 13.259560 3.094418 -6.548075 -44.571069 8.497073 -0.219344 40.955245 -3.453904 5.280129 11.413090 0.000000 0.000000 0.000000 4.945865 1.005527 10.983078 -13.658064 2.518385 -50.540647 -1.471828 5.655869 56.301656 7.857856 4.811249 14.962112 0.000000 0.000000 0.000000 3.154420 1.895638 7.566112 5.779991 -0.117984 8.780603 -1.033968 -2.662007 11.108484 0.097236 -0.078202 0.151188 -0.870652 -1.600162 13.228601 -5.847198 5.285602 15.538638 0.000000 0.000000 0.000000 0.434890 -1.049046 9.472843 3.026997 -9.185181 0.571470 -66.528460 8.861324 21.096704 -59.242916 -89.076766 76.282141 0.000000 0.000000 0.000000 -3.317349 0.512384 8.858602 13.623149 10.001995 -5.646317 65.613147 -3.241452 12.892156 -156.927599 80.822919 -163.455142 0.000000 0.000000 0.000000 
-3.898834 33.257755 -23.192411 179.392706 7.402917 -178.924756 0.668010 -1.830277 13.891492 2.114873 -6.187998 -46.213333 9.751572 0.429138 42.469819 -3.913077 5.571882 11.160445 0.000000 0.000000 0.000000 4.830772 0.060174 11.120846 -9.448289 0.728630 -51.874740 -1.114679 4.660659 53.787111 6.843101 4.749125 15.216077 0.000000 0.000000 0.000000 3.010338 1.076654 9.146982 5.474607 0.022244 10.831071 -1.030549 -2.409959 11.044156 0.064547 -0.016633 0.124763 -0.986870 -1.224555 13.405494 -5.673724 5.050368 15.212802 0.000000 0.000000 0.000000 0.202237 -0.829758 9.567912 2.842592 -9.413159 0.836112 -67.337770 8.220539 20.594948 -29.570273 -89.432830 46.873420 0.000000 0.000000 0.000000 -3.412277 0.701480 8.975943 12.557293 9.742099 -5.965318 66.114189 -1.682254 13.392965 -151.463379 82.134630 -158.249022 0.000000 0.000000 0.000000 
-4.611178 33.110817 -22.775471 179.456445 8.571183 -178.914155 0.431062 -2.557561 14.734180 1.306957 -5.734007 -48.383250 10.791762 0.786842 44.126348 -4.429071 5.733124 11.025267 0.000000 0.000000 0.000000 4.866455 -0.918158 11.701273 -6.043601 -0.585049 -52.771343 -0.776110 3.971085 51.072309 6.233743 4.796917 16.072536 0.000000 0.000000 0.000000 2.946707 0.361056 10.647779 5.170765 0.033296 12.552341 -1.049131 -2.079204 10.942614 0.025486 0.031286 0.137288 -1.001553 -1.066533 13.543845 -5.686194 4.572915 15.192362 0.000000 0.000000 0.000000 0.029204 -0.621888 9.364107 2.433860 -9.567456 1.110660 -67.978783 7.538177 19.754176 -0.547136 -89.082933 17.982990 0.000000 0.000000 0.000000 -3.393913 0.893115 8.771146 11.341833 9.378085 -6.282346 66.595232 -0.006474 13.810689 -143.467768 83.220111 -150.613540 0.000000 0.000000 0.000000 
-5.236338 32.901726 -22.374331 179.526577 9.680121 -178.907161 0.217015 -2.967443 15.678578 0.768802 -5.250877 -50.874063 11.607969 0.959572 45.887212 -4.941888 5.824452 10.992727 0.000000 0.000000 0.000000 4.821994 -1.243647 12.555330 -3.307051 -2.302325 -53.358729 -0.528806 3.266374 48.893370 5.601943 4.716494 17.302000 0.000000 0.000000 0.000000 2.869037 -0.105319 12.028342 4.859797 0.014225 13.925209 -0.948359 -1.888018 10.841808 0.009600 0.018025 0.050210 -0.974149 -0.836761 13.553488 -5.601293 4.268075 15.504862 0.000000 0.000000 0.000000 0.057630 -0.312813 9.062473 1.737286 -9.802153 1.302057 -68.592024 7.105539 18.711431 9.158685 -88.392094 8.245462 0.000000 0.000000 0.000000 -3.336976 1.159787 8.429746 10.100188 9.104613 -6.483603 67.089827 1.891431 14.143832 -132.364258 84.020992 -139.948117 0.000000 0.000000 0.000000 
